<?xml version="1.0"?>
<svg xmlns="http://www.w3.org/2000/svg" xmlns:xlink="http://www.w3.org/1999/xlink" version="1.1" id="Capa_1" x="0px" y="0px" viewBox="0 0 512 512" style="enable-background:new 0 0 512 512;" xml:space="preserve" width="512px" height="512px"><g><g>
	<g>
		<path d="M256,0C115.032,0,0,115.05,0,256c0,140.97,115.049,256,256,256c140.97,0,256-115.049,256-256C512,114.824,396.776,0,256,0    z M256,30c99.373,0,183.971,64.47,214.167,153.781l-101.884,63.148C361.708,243.165,354.104,241,346,241H166    c-8.104,0-15.708,2.165-22.283,5.929L41.833,183.781C72.029,94.47,156.627,30,256,30z M361,286v90c0,8.271-6.729,15-15,15H166    c-8.271,0-15-6.729-15-15v-90c0-8.271,6.729-15,15-15h180C354.271,271,361,277.729,361,286z M30,256    c0-14.294,1.349-28.277,3.899-41.842l90.06,55.82C122.054,274.959,121,280.357,121,286v90c0,6.884,1.559,13.409,4.334,19.249    l-28.303,21.227C55.665,375.495,30,318.691,30,256z M256,482c-50.906,0-97.93-16.925-135.755-45.434l26.523-19.893    C152.604,419.444,159.123,421,166,421h180c5.405,0,10.589-0.959,15.394-2.714l28.018,20.013C351.996,465.756,305.862,482,256,482z     M413.07,418.33l-28.019-20.013C388.828,391.734,391,384.118,391,376v-90c0-5.643-1.054-11.041-2.958-16.022l90.06-55.82    C480.651,227.723,482,241.706,482,256C482,319.643,455.547,377.217,413.07,418.33z" data-original="#000000" class="active-path" data-old_color="#000000" fill="#15CF23"/>
	</g>
</g><g>
	<g>
		<path d="M346,121c-24.813,0-45,20.187-45,45s20.187,45,45,45s45-20.187,45-45S370.813,121,346,121z M346,181    c-8.271,0-15-6.729-15-15s6.729-15,15-15s15,6.729,15,15S354.271,181,346,181z" data-original="#000000" class="active-path" data-old_color="#000000" fill="#15CF23"/>
	</g>
</g><g>
	<g>
		<path d="M166,121c-24.813,0-45,20.187-45,45s20.187,45,45,45s45-20.187,45-45S190.813,121,166,121z M166,181    c-8.271,0-15-6.729-15-15s6.729-15,15-15s15,6.729,15,15S174.271,181,166,181z" data-original="#000000" class="active-path" data-old_color="#000000" fill="#15CF23"/>
	</g>
</g></g> </svg>
